#Comment line ignore any data following # character 
#Hierarchical Translation and Rotation (.htr) file 
[Header]	
#Header keywords are followed by a single value 
FileType HTR		#Single word string
DataType HTRS		#Translation followed by rotation and scale data
FileVersion 1		#integer
NumSegments 84		#integer
NumFrames 2		#integer
DataFrameRate 30		#integer, data frame rate in this file
EulerRotationOrder ZYX
CalibrationUnits mm
RotationUnits Degrees
GlobalAxisofGravity Y
BoneLengthAxis Y
ScaleFactor 1.00
[SegmentNames&Hierarchy]
#CHILD	PARENT
MASTER GLOBAL
root MASTER
chest root
L_mid_tent01 root
R_mid_tent01 root
spine01 root
Bip01_Neck chest
L_humerus chest
R_humerus chest
weapon_bone chest
Bip01_Head Bip01_Neck
eye_left_bone Bip01_Head
eye_right_bone Bip01_Head
L_forearm L_humerus
L_front_hand L_forearm
L_weapon_bone L_forearm
L_front_hand01_01 L_front_hand
L_front_hand02_01 L_front_hand
L_front_hand03_01 L_front_hand
L_front_hand01_02 L_front_hand01_01
L_front_hand02_02 L_front_hand02_01
L_front_hand03_02 L_front_hand03_01
R_forearm R_humerus
R_front_hand R_forearm
R_weapon_bone R_forearm
R_front_hand01_01 R_front_hand
R_front_hand02_01 R_front_hand
R_front_hand03_01 R_front_hand
R_front_hand01_02 R_front_hand01_01
R_front_hand02_02 R_front_hand02_01
R_front_hand03_02 R_front_hand03_01
null_rope01_connect L_mid_tent01
Rope1_Seg01 null_rope01_connect
Rope1_Seg02 Rope1_Seg01
Rope1_Seg03 Rope1_Seg02
Rope1_Seg04 Rope1_Seg03
Rope1_Seg05 Rope1_Seg04
Rope1_Seg06 Rope1_Seg05
Rope1_Seg07 Rope1_Seg06
Rope1_Seg09 Rope1_Seg07
L_mid_hand01 Rope1_Seg09
L_mid_hand02 Rope1_Seg09
L_mid_hand03 Rope1_Seg09
null_rope02_connect R_mid_tent01
Rope2_Seg01 null_rope02_connect
Rope2_Seg02 Rope2_Seg01
Rope2_Seg03 Rope2_Seg02
Rope2_Seg04 Rope2_Seg03
Rope2_Seg05 Rope2_Seg04
Rope2_Seg06 Rope2_Seg05
Rope2_Seg07 Rope2_Seg06
Rope2_Seg09 Rope2_Seg07
R_mid_hand01 Rope2_Seg09
R_mid_hand02 Rope2_Seg09
R_mid_hand03 Rope2_Seg09
spine02 spine01
spine03 spine02
pelvis spine03
null_rope03_connect pelvis
null_rope04_connect pelvis
Rope3_Seg01 null_rope03_connect
Rope3_Seg02 Rope3_Seg01
Rope3_Seg03 Rope3_Seg02
Rope3_Seg04 Rope3_Seg03
Rope3_Seg05 Rope3_Seg04
Rope3_Seg06 Rope3_Seg05
Rope3_Seg07 Rope3_Seg06
Rope3_Seg08 Rope3_Seg07
Rope3_Seg09 Rope3_Seg08
R_rear_hand01 Rope3_Seg09
R_rear_hand02 Rope3_Seg09
R_rear_hand03 Rope3_Seg09
Rope4_Seg01 null_rope04_connect
Rope4_Seg02 Rope4_Seg01
Rope4_Seg03 Rope4_Seg02
Rope4_Seg04 Rope4_Seg03
Rope4_Seg05 Rope4_Seg04
Rope4_Seg06 Rope4_Seg05
Rope4_Seg07 Rope4_Seg06
Rope4_Seg08 Rope4_Seg07
Rope4_Seg09 Rope4_Seg08
L_rear_hand01 Rope4_Seg09
L_rear_hand02 Rope4_Seg09
L_rear_hand03 Rope4_Seg09
[BasePosition]
#SegmentName Tx, Ty, Tz, Rx, Ry, Rz, BoneLength
MASTER 0.000000 0.000000 0.000000 -90.000000 0.000000 0.000000 10.000000 
root 0.000000 0.000000 0.000000 0.000000 0.000000 0.000000 10.000000 
chest 0.000000 0.000000 0.000000 0.000000 0.000000 0.000000 10.000000 
L_mid_tent01 0.000000 0.000000 0.000000 0.000000 0.000000 0.000000 10.000000 
R_mid_tent01 0.000000 0.000000 0.000000 0.000000 0.000000 0.000000 10.000000 
spine01 0.000000 0.000000 0.000000 0.000000 0.000000 0.000000 10.000000 
Bip01_Neck 0.000000 0.000000 0.000000 0.000000 0.000000 0.000000 10.000000 
L_humerus 0.000000 0.000000 0.000000 0.000000 0.000000 0.000000 10.000000 
R_humerus 0.000000 0.000000 0.000000 0.000000 0.000000 0.000000 10.000000 
weapon_bone 0.000000 0.000000 0.000000 0.000000 0.000000 0.000000 10.000000 
Bip01_Head 0.000000 0.000000 0.000000 0.000000 0.000000 0.000000 10.000000 
eye_left_bone 0.000000 0.000000 0.000000 0.000000 0.000000 0.000000 10.000000 
eye_right_bone 0.000000 0.000000 0.000000 0.000000 0.000000 0.000000 10.000000 
L_forearm 0.000000 0.000000 0.000000 0.000000 0.000000 0.000000 10.000000 
L_front_hand 0.000000 0.000000 0.000000 0.000000 0.000000 0.000000 10.000000 
L_weapon_bone 0.000000 0.000000 0.000000 0.000000 0.000000 0.000000 10.000000 
L_front_hand01_01 0.000000 0.000000 0.000000 0.000000 0.000000 0.000000 10.000000 
L_front_hand02_01 0.000000 0.000000 0.000000 0.000000 0.000000 0.000000 10.000000 
L_front_hand03_01 0.000000 0.000000 0.000000 0.000000 0.000000 0.000000 10.000000 
L_front_hand01_02 0.000000 0.000000 0.000000 0.000000 0.000000 0.000000 10.000000 
L_front_hand02_02 0.000000 0.000000 0.000000 0.000000 0.000000 0.000000 10.000000 
L_front_hand03_02 0.000000 0.000000 0.000000 0.000000 0.000000 0.000000 10.000000 
R_forearm 0.000000 0.000000 0.000000 0.000000 0.000000 0.000000 10.000000 
R_front_hand 0.000000 0.000000 0.000000 0.000000 0.000000 0.000000 10.000000 
R_weapon_bone 0.000000 0.000000 0.000000 0.000000 0.000000 0.000000 10.000000 
R_front_hand01_01 0.000000 0.000000 0.000000 0.000000 0.000000 0.000000 10.000000 
R_front_hand02_01 0.000000 0.000000 0.000000 0.000000 0.000000 0.000000 10.000000 
R_front_hand03_01 0.000000 0.000000 0.000000 0.000000 0.000000 0.000000 10.000000 
R_front_hand01_02 0.000000 0.000000 0.000000 0.000000 0.000000 0.000000 10.000000 
R_front_hand02_02 0.000000 0.000000 0.000000 0.000000 0.000000 0.000000 10.000000 
R_front_hand03_02 0.000000 0.000000 0.000000 0.000000 0.000000 0.000000 10.000000 
null_rope01_connect 0.000000 0.000000 0.000000 0.000000 0.000000 0.000000 10.000000 
Rope1_Seg01 0.000000 0.000000 0.000000 0.000000 0.000000 0.000000 10.000000 
Rope1_Seg02 0.000000 0.000000 0.000000 0.000000 0.000000 0.000000 10.000000 
Rope1_Seg03 0.000000 0.000000 0.000000 0.000000 0.000000 0.000000 10.000000 
Rope1_Seg04 0.000000 0.000000 0.000000 0.000000 0.000000 0.000000 10.000000 
Rope1_Seg05 0.000000 0.000000 0.000000 0.000000 0.000000 0.000000 10.000000 
Rope1_Seg06 0.000000 0.000000 0.000000 0.000000 0.000000 0.000000 10.000000 
Rope1_Seg07 0.000000 0.000000 0.000000 0.000000 0.000000 0.000000 10.000000 
Rope1_Seg09 0.000000 0.000000 0.000000 0.000000 0.000000 0.000000 10.000000 
L_mid_hand01 0.000000 0.000000 0.000000 0.000000 0.000000 0.000000 10.000000 
L_mid_hand02 0.000000 0.000000 0.000000 0.000000 0.000000 0.000000 10.000000 
L_mid_hand03 0.000000 0.000000 0.000000 0.000000 0.000000 0.000000 10.000000 
null_rope02_connect 0.000000 0.000000 0.000000 0.000000 0.000000 0.000000 10.000000 
Rope2_Seg01 0.000000 0.000000 0.000000 0.000000 0.000000 0.000000 10.000000 
Rope2_Seg02 0.000000 0.000000 0.000000 0.000000 0.000000 0.000000 10.000000 
Rope2_Seg03 0.000000 0.000000 0.000000 0.000000 0.000000 0.000000 10.000000 
Rope2_Seg04 0.000000 0.000000 0.000000 0.000000 0.000000 0.000000 10.000000 
Rope2_Seg05 0.000000 0.000000 0.000000 0.000000 0.000000 0.000000 10.000000 
Rope2_Seg06 0.000000 0.000000 0.000000 0.000000 0.000000 0.000000 10.000000 
Rope2_Seg07 0.000000 0.000000 0.000000 0.000000 0.000000 0.000000 10.000000 
Rope2_Seg09 0.000000 0.000000 0.000000 0.000000 0.000000 0.000000 10.000000 
R_mid_hand01 0.000000 0.000000 0.000000 0.000000 0.000000 0.000000 10.000000 
R_mid_hand02 0.000000 0.000000 0.000000 0.000000 0.000000 0.000000 10.000000 
R_mid_hand03 0.000000 0.000000 0.000000 0.000000 0.000000 0.000000 10.000000 
spine02 0.000000 0.000000 0.000000 0.000000 0.000000 0.000000 10.000000 
spine03 0.000000 0.000000 0.000000 0.000000 0.000000 0.000000 10.000000 
pelvis 0.000000 0.000000 0.000000 0.000000 0.000000 0.000000 10.000000 
null_rope03_connect 0.000000 0.000000 0.000000 0.000000 0.000000 0.000000 10.000000 
null_rope04_connect 0.000000 0.000000 0.000000 0.000000 0.000000 0.000000 10.000000 
Rope3_Seg01 0.000000 0.000000 0.000000 0.000000 0.000000 0.000000 10.000000 
Rope3_Seg02 0.000000 0.000000 0.000000 0.000000 0.000000 0.000000 10.000000 
Rope3_Seg03 0.000000 0.000000 0.000000 0.000000 0.000000 0.000000 10.000000 
Rope3_Seg04 0.000000 0.000000 0.000000 0.000000 0.000000 0.000000 10.000000 
Rope3_Seg05 0.000000 0.000000 0.000000 0.000000 0.000000 0.000000 10.000000 
Rope3_Seg06 0.000000 0.000000 0.000000 0.000000 0.000000 0.000000 10.000000 
Rope3_Seg07 0.000000 0.000000 0.000000 0.000000 0.000000 0.000000 10.000000 
Rope3_Seg08 0.000000 0.000000 0.000000 0.000000 0.000000 0.000000 10.000000 
Rope3_Seg09 0.000000 0.000000 0.000000 0.000000 0.000000 0.000000 10.000000 
R_rear_hand01 0.000000 0.000000 0.000000 0.000000 0.000000 0.000000 10.000000 
R_rear_hand02 0.000000 0.000000 0.000000 0.000000 0.000000 0.000000 10.000000 
R_rear_hand03 0.000000 0.000000 0.000000 0.000000 0.000000 0.000000 10.000000 
Rope4_Seg01 0.000000 0.000000 0.000000 0.000000 0.000000 0.000000 10.000000 
Rope4_Seg02 0.000000 0.000000 0.000000 0.000000 0.000000 0.000000 10.000000 
Rope4_Seg03 0.000000 0.000000 0.000000 0.000000 0.000000 0.000000 10.000000 
Rope4_Seg04 0.000000 0.000000 0.000000 0.000000 0.000000 0.000000 10.000000 
Rope4_Seg05 0.000000 0.000000 0.000000 0.000000 0.000000 0.000000 10.000000 
Rope4_Seg06 0.000000 0.000000 0.000000 0.000000 0.000000 0.000000 10.000000 
Rope4_Seg07 0.000000 0.000000 0.000000 0.000000 0.000000 0.000000 10.000000 
Rope4_Seg08 0.000000 0.000000 0.000000 0.000000 0.000000 0.000000 10.000000 
Rope4_Seg09 0.000000 0.000000 0.000000 0.000000 0.000000 0.000000 10.000000 
L_rear_hand01 0.000000 0.000000 0.000000 0.000000 0.000000 0.000000 10.000000 
L_rear_hand02 0.000000 0.000000 0.000000 0.000000 0.000000 0.000000 10.000000 
L_rear_hand03 0.000000 0.000000 0.000000 0.000000 0.000000 0.000000 10.000000 
#Beginning of Data. Separated by tabs
#Fr	Tx	Ty	Tz	Rx	Ry	Rz	SF
[MASTER]
13 1555.184204 1750.027466 1311.674561 0.001660 0.001660 0.001660 2683.595459
14 1752.191895 1981.397217 1595.015015 0.001660 0.001660 0.001660 3088.718750
[root]
13 72.008247 -18.839373 724.272156 -22.164799 -0.958478 -110.321091 728.086731
14 52.744671 -41.223820 433.173248 -14.699950 1.832873 -111.753036 438.315491
[chest]
13 -84.512650 -34.090519 0.000000 8.685329 -4.798215 172.863541 91.129311
14 -84.512650 -34.090519 0.000000 10.054947 -2.347422 169.164627 91.129311
[L_mid_tent01]
13 27.299072 22.179125 -249.918701 -0.880549 20.623726 74.457245 252.381683
14 27.299070 22.179127 -249.918701 -0.434426 20.276907 77.514091 252.381683
[R_mid_tent01]
13 23.228794 24.509907 226.238495 169.608139 -22.895670 66.395638 228.744751
14 23.228794 24.509907 226.238495 169.249802 -22.391344 67.281548 228.744751
[spine01]
13 -0.361383 -0.195265 0.000000 0.001904 0.001372 18.449539 0.410763
14 -0.361383 -0.195265 0.000000 0.001903 0.001375 18.309265 0.410763
[Bip01_Neck]
13 165.484543 71.581718 0.000119 176.643677 -1.657967 43.431911 180.302734
14 165.484543 71.581718 0.000119 176.643677 -1.657967 43.431915 180.302734
[L_humerus]
13 -13.983130 -135.272980 -120.471481 85.891624 86.664169 173.904083 181.680161
14 -13.983130 -135.272980 -120.471481 116.804047 85.496017 -155.037720 181.680161
[R_humerus]
13 -13.983309 -135.273102 125.287651 -175.509918 -72.102417 -89.332504 184.909012
14 -13.983309 -135.273102 125.287651 -173.638519 -69.137657 -91.253326 184.909012
[weapon_bone]
13 235.964890 -300.705902 0.000000 0.000000 -89.951546 -128.212341 382.234833
14 235.964890 -300.705902 0.000000 0.000000 -89.951546 -128.212341 382.234833
[Bip01_Head]
13 213.583969 185.326843 16.794893 17.591181 -0.666487 -43.893997 283.277649
14 213.500214 185.559235 13.793269 17.733099 1.218584 -43.886692 283.204559
[eye_left_bone]
13 -24.626970 125.451866 -64.772606 0.000000 -90.000000 -99.840431 143.318359
14 -24.626970 125.451866 -64.772606 0.000000 -90.000000 -99.840431 143.318359
[eye_right_bone]
13 -24.626970 125.451866 64.327362 0.000000 -89.965736 80.156380 143.117676
14 -24.626970 125.451866 64.327362 0.000000 -89.965736 80.156380 143.117676
[L_forearm]
13 322.776093 0.000000 -0.000119 0.000212 -0.002338 -100.387482 322.776093
14 322.776093 0.000000 -0.000119 0.000191 -0.002339 -99.338097 322.776093
[L_front_hand]
13 241.149185 -0.042021 -3.300071 165.102371 -3.434227 -14.899312 241.171753
14 241.149185 -0.042021 -3.300071 164.167847 -3.362184 -13.759077 241.171753
[L_weapon_bone]
13 156.183838 0.000000 0.000000 0.000014 0.000007 0.000001 156.183838
14 156.183838 0.000000 0.000000 0.000014 0.000007 0.000001 156.183838
[L_front_hand01_01]
13 86.095154 20.947098 -0.655860 -0.281026 -0.528937 65.755089 88.609184
14 86.095154 20.947098 -0.655860 -0.289102 -0.524108 66.611069 88.609184
[L_front_hand02_01]
13 86.935165 -11.437475 24.513514 141.611877 -54.742973 -46.215725 91.046425
14 86.935165 -11.437475 24.513514 142.580505 -55.268982 -47.395367 91.046425
[L_front_hand03_01]
13 86.637497 -14.123976 -20.424902 -141.973572 52.970398 -48.259937 90.126129
14 86.637497 -14.123976 -20.424902 -142.879883 53.494282 -49.391994 90.126129
[L_front_hand01_02]
13 71.020905 -0.000179 0.000030 0.000315 -0.002326 -105.419182 71.020905
14 71.020905 -0.000179 0.000030 0.000316 -0.002326 -105.468910 71.020905
[L_front_hand02_02]
13 71.020927 -0.000119 0.000060 0.000315 -0.002326 -105.419182 71.020927
14 71.020927 -0.000119 0.000060 0.000316 -0.002326 -105.468910 71.020927
[L_front_hand03_02]
13 71.020905 -0.000060 0.000060 0.000315 -0.002326 -105.419182 71.020905
14 71.020905 -0.000060 0.000060 0.000316 -0.002326 -105.468910 71.020905
[R_forearm]
13 322.776428 -0.000060 0.000030 0.201404 0.067285 -109.271156 322.776428
14 322.776428 -0.000060 0.000030 0.201364 0.067408 -109.340874 322.776428
[R_front_hand]
13 238.847015 -0.006795 2.210259 -2.635298 -10.645462 -26.312506 238.857239
14 238.847015 -0.006795 2.210259 -2.635298 -10.645460 -26.312504 238.857239
[R_weapon_bone]
13 155.664093 0.002503 -0.000030 0.003487 0.001180 -90.988930 155.664078
14 155.664093 0.002503 -0.000030 0.003487 0.001180 -90.988930 155.664078
[R_front_hand01_01]
13 87.624611 14.231146 22.918642 -139.165207 -53.267754 43.295242 91.683487
14 87.624611 14.231146 22.918642 -141.083969 -54.436916 45.672474 91.683487
[R_front_hand02_01]
13 89.356956 14.367283 -19.491137 139.980438 51.699215 45.970734 92.579636
14 89.356956 14.367283 -19.491137 141.812988 52.852680 48.289921 92.579636
[R_front_hand03_01]
13 87.286232 -22.307278 -0.143439 0.071045 -0.448771 -63.677063 90.091743
14 87.286232 -22.307278 -0.143439 0.082367 -0.444902 -65.508438 90.091743
[R_front_hand01_02]
13 71.020905 0.000060 0.000119 0.002323 -0.000334 106.381714 71.020905
14 71.020905 0.000060 0.000119 0.002323 -0.000334 106.381721 71.020905
[R_front_hand02_02]
13 71.020844 -0.000030 -0.000119 0.002323 -0.000334 106.381714 71.020836
14 71.020844 -0.000030 -0.000119 0.002323 -0.000334 106.381721 71.020836
[R_front_hand03_02]
13 71.020905 0.000000 0.000030 0.002323 -0.000334 106.381714 71.020905
14 71.020905 0.000000 0.000030 0.002323 -0.000334 106.381721 71.020905
[null_rope01_connect]
13 328.732483 0.000000 -0.000238 -21.854811 -37.303619 44.486885 328.732483
14 328.732483 0.000000 -0.000238 -19.955954 -29.460003 39.415333 328.732483
[Rope1_Seg01]
13 -0.000005 -0.000070 0.000134 -126.904167 68.703712 63.635242 0.000152
14 -0.000005 -0.000073 0.000133 -121.550934 65.809532 67.344437 0.000152
[Rope1_Seg02]
13 139.999863 -0.000179 0.000000 -5.079033 11.040501 -8.368878 139.999863
14 139.999863 -0.000179 0.000000 -4.974773 10.693934 -8.495519 139.999863
[Rope1_Seg03]
13 139.999924 0.000060 -0.000060 -13.570042 12.860867 -8.957265 139.999924
14 139.999924 0.000060 -0.000060 -11.977159 11.709453 -8.964635 139.999924
[Rope1_Seg04]
13 139.999924 -0.000060 -0.000119 -61.880383 12.593119 -6.842835 139.999924
14 139.999924 -0.000060 -0.000119 -64.152016 10.808393 -7.141038 139.999924
[Rope1_Seg05]
13 139.999832 0.000119 -0.000060 -52.158241 6.437639 9.914800 139.999832
14 139.999832 0.000119 -0.000060 -55.111664 5.982421 11.295072 139.999832
[Rope1_Seg06]
13 139.999954 0.000119 -0.000060 -2.224725 -7.290431 9.402587 139.999954
14 139.999954 0.000119 -0.000060 -0.107388 -9.207715 9.926234 139.999954
[Rope1_Seg07]
13 139.999985 0.000060 0.000000 -2.141652 -4.376996 6.774990 139.999985
14 139.999985 0.000060 0.000000 -1.555571 -4.705422 6.638248 139.999985
[Rope1_Seg09]
13 121.602913 0.000119 -0.000089 -89.793175 -1.359789 0.847147 121.602913
14 121.602913 0.000119 -0.000089 -89.793175 -1.359789 0.847147 121.602913
[L_mid_hand01]
13 103.859421 1.038730 8.195221 109.630608 -42.428204 -14.062104 104.187431
14 103.859421 1.038730 8.195221 110.331230 -44.470772 -15.085358 104.187431
[L_mid_hand02]
13 105.572853 -4.139662 -10.864139 -147.734787 32.524982 -39.820675 106.211075
14 105.572853 -4.139662 -10.864139 -148.937698 33.668652 -42.029232 106.211075
[L_mid_hand03]
13 104.641464 17.579376 -3.913581 -13.849796 12.791805 45.822666 106.179977
14 104.641464 17.579376 -3.913581 -13.360333 13.301836 47.989151 106.179977
[null_rope02_connect]
13 328.732849 0.000179 -0.000119 -163.148605 11.236579 -40.763725 328.732849
14 328.732849 0.000179 -0.000119 -163.799988 4.287017 -43.613476 328.732849
[Rope2_Seg01]
13 0.000050 0.000171 0.000000 159.636002 -83.157387 0.178400 0.000178
14 0.000050 0.000172 0.000000 28.554167 -82.196434 132.948959 0.000179
[Rope2_Seg02]
13 139.999741 -0.000060 -0.000119 -7.542381 -17.195158 -64.879433 139.999756
14 139.999741 -0.000060 -0.000119 4.698410 -12.846968 -67.177849 139.999756
[Rope2_Seg03]
13 140.000107 0.000030 0.000000 0.509246 -2.129507 -28.103067 140.000107
14 140.000107 0.000030 0.000000 4.394881 -5.609551 -24.360592 140.000107
[Rope2_Seg04]
13 139.999802 0.000000 -0.000060 0.306019 2.802259 -4.964338 139.999802
14 139.999802 0.000000 -0.000060 0.696845 0.201243 -4.330659 139.999802
[Rope2_Seg05]
13 139.999985 -0.000060 0.000119 -0.492966 6.569067 -1.022375 139.999985
14 139.999985 -0.000060 0.000119 -0.213125 3.082089 -0.627464 139.999985
[Rope2_Seg06]
13 139.999893 -0.000030 -0.000119 -0.401939 5.612049 -1.667001 139.999893
14 139.999893 -0.000030 -0.000119 -0.672925 4.712587 0.206610 139.999893
[Rope2_Seg07]
13 139.999893 0.000060 -0.000060 -0.019565 3.696909 -1.884343 139.999893
14 139.999893 0.000060 -0.000060 -0.080853 2.676824 -1.202381 139.999893
[Rope2_Seg09]
13 121.338966 0.000089 -0.000060 33.793236 -1.359788 -0.847141 121.338966
14 121.338966 0.000089 -0.000060 33.793236 -1.359788 -0.847141 121.338966
[R_mid_hand01]
13 104.680779 11.144459 -10.335981 -35.659058 33.675755 40.429829 105.778534
14 104.680779 11.144459 -10.335981 -36.495319 32.739510 38.894333 105.778534
[R_mid_hand02]
13 104.070427 2.443552 8.231699 69.379761 -45.224785 15.491559 104.424065
14 104.070427 2.443552 8.231699 69.926315 -43.736984 14.713634 104.424065
[R_mid_hand03]
13 106.028137 -11.221827 -5.996406 -170.548004 12.734514 -50.222630 106.788818
14 106.028137 -11.221827 -5.996406 -170.196442 12.469421 -48.616371 106.788818
[spine02]
13 129.756927 0.001550 0.000119 0.480203 -4.031328 -14.650633 129.756927
14 129.756927 0.001550 0.000119 0.488924 -4.030232 -14.759027 129.756927
[spine03]
13 78.614075 0.081482 -4.899013 1.970217 3.797409 17.555765 78.766617
14 78.614075 0.081482 -4.899013 1.973203 3.794986 17.614664 78.766617
[pelvis]
13 169.435242 0.051022 0.000000 -0.058920 -0.180736 13.106725 169.435257
14 169.435242 0.051022 0.000000 -0.056196 -0.181102 12.937488 169.435257
[null_rope03_connect]
13 -1.257226 -2.466202 137.391083 -6.751680 -19.857393 77.245323 137.418976
14 -1.257226 -2.466202 137.391083 -6.818432 -11.761354 78.134575 137.418976
[null_rope04_connect]
13 -1.259640 -2.480268 -137.844437 -6.751680 -19.857393 77.245323 137.872513
14 -1.259640 -2.480268 -137.844437 -6.818432 -11.761354 78.134575 137.872513
[Rope3_Seg01]
13 -0.000021 -0.000070 0.000000 24.747887 -18.530651 -104.354500 0.000073
14 -0.000022 -0.000073 0.000000 28.203463 -21.733362 -109.587944 0.000076
[Rope3_Seg02]
13 139.999924 -0.000119 0.000060 12.604978 -34.039780 26.803787 139.999924
14 139.999924 -0.000119 0.000060 16.782717 -32.142460 24.828695 139.999924
[Rope3_Seg03]
13 139.999924 -0.000119 0.000119 1.492630 -21.630365 34.220432 139.999924
14 139.999924 -0.000119 0.000119 3.455377 -19.854305 36.356144 139.999924
[Rope3_Seg04]
13 139.999924 0.000119 0.000000 -2.503374 -10.049569 20.030161 139.999924
14 139.999924 0.000119 0.000000 -2.341826 -9.107087 21.318462 139.999924
[Rope3_Seg05]
13 139.999924 -0.000238 0.000060 -6.413774 -10.612718 20.335566 139.999924
14 139.999924 -0.000238 0.000060 -5.992330 -9.305349 19.563484 139.999924
[Rope3_Seg06]
13 139.999893 -0.000119 -0.000060 -3.722440 -5.915453 9.256090 139.999893
14 139.999893 -0.000119 -0.000060 -3.394701 -5.005900 8.731033 139.999893
[Rope3_Seg07]
13 139.999771 0.000060 -0.000119 -1.963938 -3.447206 4.753394 139.999771
14 139.999771 0.000060 -0.000119 -1.884649 -3.015613 4.688878 139.999771
[Rope3_Seg08]
13 139.999985 -0.000060 0.000000 -0.935586 -2.035023 2.625380 139.999985
14 139.999985 -0.000060 0.000000 -0.915082 -1.798090 2.613128 139.999985
[Rope3_Seg09]
13 90.185997 -0.000179 -0.000060 89.793228 -1.359877 -0.847183 90.185997
14 90.185997 -0.000179 -0.000060 89.793228 -1.359877 -0.847183 90.185997
[R_rear_hand01]
13 103.366196 -6.073594 -10.757982 -165.364609 20.073742 -42.141056 104.101845
14 103.366196 -6.073594 -10.757982 -164.915878 19.747877 -40.821396 104.101845
[R_rear_hand02]
13 100.509819 12.039542 -7.992327 -30.084070 25.665682 39.802124 101.543350
14 100.509819 12.039542 -7.992327 -30.611036 25.017700 38.577408 101.543350
[R_rear_hand03]
13 101.539970 5.215704 5.435467 82.244064 -42.772606 9.150358 101.819031
14 101.539970 5.215704 5.435467 82.396393 -41.501793 8.918388 101.819031
[Rope4_Seg01]
13 0.000010 0.000038 -0.000114 -118.600487 31.547272 -137.435150 0.000121
14 0.000010 0.000038 -0.000114 -124.018303 33.219414 -143.886536 0.000121
[Rope4_Seg02]
13 139.999985 0.000060 0.000119 -9.593870 -1.906617 11.582329 139.999985
14 139.999985 0.000060 0.000119 -10.928121 -3.601109 10.619524 139.999985
[Rope4_Seg03]
13 139.999924 0.000000 -0.000238 -13.043446 -4.693676 13.935825 139.999924
14 139.999924 0.000000 -0.000238 -13.859253 -7.182102 12.887851 139.999924
[Rope4_Seg04]
13 139.999985 0.000000 0.000119 -12.131125 -8.702939 12.198746 139.999985
14 139.999985 0.000000 0.000119 -12.038874 -11.662857 11.401377 139.999985
[Rope4_Seg05]
13 139.999802 -0.000060 -0.000119 -7.416272 -8.754344 7.921577 139.999802
14 139.999802 -0.000060 -0.000119 -6.747152 -11.408640 7.296975 139.999802
[Rope4_Seg06]
13 139.999924 0.000000 0.000060 -6.830794 -7.441673 9.481997 139.999924
14 139.999924 0.000000 0.000060 -5.131571 -9.353922 8.231215 139.999924
[Rope4_Seg07]
13 139.999802 0.000000 0.000000 -7.769645 -8.678217 12.554798 139.999802
14 139.999802 0.000000 0.000000 -4.708124 -9.568710 10.218084 139.999802
[Rope4_Seg08]
13 139.999924 0.000000 0.000119 -5.954939 -7.390269 8.029799 139.999924
14 139.999924 0.000000 0.000119 -3.697405 -7.197594 6.171709 139.999924
[Rope4_Seg09]
13 90.185791 0.000060 0.000060 -135.617828 2.228885 0.850567 90.185791
14 90.185791 0.000060 0.000060 -135.617828 2.228885 0.850567 90.185791
[L_rear_hand01]
13 101.696655 -8.392275 -7.654577 -28.796082 -27.129267 137.298477 102.329041
14 101.696655 -8.392275 -7.654577 -27.588621 -28.361078 134.712112 102.329041
[L_rear_hand02]
13 102.726799 -1.568258 5.773216 81.840157 45.725384 170.277420 102.900848
14 102.726799 -1.568258 5.773216 81.431328 48.300419 169.720108 102.900848
[L_rear_hand03]
13 104.552910 9.721220 -10.420293 -166.442245 -20.805418 -134.771164 105.519653
14 104.552910 9.721220 -10.420293 -167.421631 -21.393101 -132.057724 105.519653
